<?xml version="1.0" standalone="no"?><!DOCTYPE svg PUBLIC "-//W3C//DTD SVG 1.1//EN" "http://www.w3.org/Graphics/SVG/1.1/DTD/svg11.dtd"><svg t="1653975895429" class="icon" viewBox="0 0 1024 1024" version="1.1" xmlns="http://www.w3.org/2000/svg" p-id="646" xmlns:xlink="http://www.w3.org/1999/xlink" width="200" height="200"><defs><style type="text/css">@font-face { font-family: feedback-iconfont; src: url("//at.alicdn.com/t/font_1031158_u69w8yhxdu.woff2?t=1630033759944") format("woff2"), url("//at.alicdn.com/t/font_1031158_u69w8yhxdu.woff?t=1630033759944") format("woff"), url("//at.alicdn.com/t/font_1031158_u69w8yhxdu.ttf?t=1630033759944") format("truetype"); }
</style></defs><path d="M714.24 581.973333a42.666667 42.666667 0 0 0-60.16 0l-108.8 108.373334a42.666667 42.666667 0 0 0 0 60.586666 42.666667 42.666667 0 0 0 30.293333 12.373334 42.666667 42.666667 0 0 0 29.866667-12.373334l35.84-35.84V896a42.666667 42.666667 0 0 0 85.333333 0v-183.893333l39.253334 38.826666a42.666667 42.666667 0 0 0 29.866666 12.373334 42.666667 42.666667 0 0 0 30.293334-12.373334 42.666667 42.666667 0 0 0 0-60.16z" fill="#1296db" p-id="647"></path><path d="M698.453333 170.666667a85.333333 85.333333 0 0 0-85.333333-85.333334H375.04a85.333333 85.333333 0 0 0-85.333333 85.333334 170.666667 170.666667 0 0 0-165.12 170.666666v430.933334a170.666667 170.666667 0 0 0 170.666666 170.666666h159.573334a42.666667 42.666667 0 0 0 0-85.333333H295.253333a85.333333 85.333333 0 0 1-85.333333-85.333333V341.333333a85.333333 85.333333 0 0 1 80.64-85.333333 85.333333 85.333333 0 0 0 85.333333 78.08h238.08a85.333333 85.333333 0 0 0 85.333334-77.653333 85.333333 85.333333 0 0 1 73.813333 85.333333v165.973333a42.666667 42.666667 0 0 0 85.333333 0V341.333333a170.666667 170.666667 0 0 0-160-170.666666zM375.04 247.04V170.666667h238.08v76.373333z" fill="#1296db" p-id="648"></path><path d="M469.333333 416H309.333333a42.666667 42.666667 0 0 0 0 85.333333H469.333333a42.666667 42.666667 0 0 0 0-85.333333zM309.333333 586.666667a42.666667 42.666667 0 0 0 0 85.333333h55.466667a42.666667 42.666667 0 0 0 0-85.333333z" fill="#1296db" p-id="649"></path></svg>