<svg width="16" height="26" viewBox="0 0 888 996" fill="none" xmlns="http://www.w3.org/2000/svg">
<path d="M369.929 28.7657C396.914 13.1862 410.406 5.39647 424.75 2.34751C437.442 -0.350213 450.559 -0.350212 463.251 2.34751C477.595 5.39647 491.088 13.1862 518.072 28.7657L813.334 199.236C840.319 214.815 853.811 222.605 863.624 233.503C872.306 243.145 878.865 254.505 882.874 266.845C887.406 280.792 887.406 296.372 887.406 327.531V668.47C887.406 699.629 887.406 715.209 882.874 729.156C878.865 741.496 872.306 752.856 863.624 762.498C853.811 773.396 840.319 781.186 813.334 796.766L518.072 967.236C491.088 982.815 477.595 990.605 463.251 993.654C450.559 996.351 437.442 996.351 424.75 993.654C410.406 990.605 396.914 982.815 369.929 967.236L74.667 796.766C47.6825 781.186 34.1903 773.396 24.3777 762.498C15.6955 752.856 9.13694 741.496 5.12733 729.156C0.5957 715.209 0.595703 699.629 0.595703 668.47V327.531C0.595703 296.372 0.5957 280.792 5.12733 266.845C9.13694 254.505 15.6955 243.145 24.3777 233.503C34.1903 222.605 47.6825 214.815 74.667 199.236L369.929 28.7657Z" fill="url(#paint0_linear_1884_2045)"/>
<g filter="url(#filter0_ddi_1884_2045)">
<path d="M668.078 593.117C664.914 593.335 661.709 593.431 658.531 593.431C657.467 593.431 656.404 593.431 655.353 593.431C657.306 585.846 658.674 578.122 659.445 570.328C659.936 565.295 660.195 560.194 660.195 555.025C660.197 549.252 659.873 543.483 659.227 537.746C644.252 545.176 628.158 550.097 611.588 552.311C606.978 552.939 602.305 553.348 597.568 553.539C599.075 546.042 600.014 538.442 600.377 530.804C600.5 528.267 600.568 525.717 600.568 523.153C600.579 512.181 599.417 501.241 597.104 490.516C585.38 497.43 572.785 502.746 559.653 506.323C554.907 507.614 550.075 508.682 545.156 509.528L545.033 509.364C546.465 502.207 547.376 494.955 547.76 487.666C547.924 484.938 547.993 482.211 547.993 479.346C547.995 470.071 547.159 460.814 545.497 451.688C529.323 468.654 509.868 482.154 488.315 491.368C466.761 500.582 443.56 505.317 420.12 505.287C392.444 505.33 365.164 498.715 340.581 486.002C351.766 481.664 362.404 476.029 372.276 469.213C346.054 456.619 323.925 436.872 308.438 412.247C292.952 387.623 284.739 359.124 284.746 330.034C284.741 320.712 285.58 311.409 287.255 302.239C288.898 293.15 291.368 284.23 294.633 275.59C297.85 267.068 301.825 258.852 306.512 251.041C311.819 242.131 318.015 233.783 325.006 226.124C301.405 236.855 279.298 250.608 259.242 267.039C208.421 308.571 172.674 365.668 157.514 429.526C152.155 452.165 149.46 475.352 149.481 498.617C149.4 548.707 161.957 598.008 185.99 641.956C187.619 627.521 191.293 613.391 196.901 599.991C215.008 643.745 243.709 682.312 280.422 712.22C317.134 742.129 360.706 762.441 407.218 771.329C399.225 760.925 392.606 749.534 387.524 737.438C412.285 745.471 438.079 749.876 464.103 750.517C466.408 750.517 468.726 750.599 471.045 750.599C512.389 750.662 553.191 741.198 590.285 722.94C584.108 719.455 578.183 715.541 572.555 711.225C613.751 695.441 650.199 669.334 678.402 635.41C691.474 619.705 702.623 602.494 711.611 584.143C697.613 589.234 682.948 592.257 668.078 593.117Z" fill="white"/>
<path d="M736.853 451.19C735.354 431.599 731.606 412.247 725.683 393.513C723.328 399.866 720.34 405.966 716.764 411.72C712.138 381.124 701.406 351.77 685.207 325.405C669.008 299.04 647.672 276.202 622.468 258.248C604.977 245.738 585.814 235.748 565.542 228.571C562.814 227.599 560.055 226.689 557.264 225.844C576.377 250.51 588.443 279.898 592.178 310.879C592.314 311.956 592.437 313.034 592.546 314.125C592.552 314.206 592.552 314.289 592.546 314.37C592.655 315.489 592.764 316.607 592.846 317.739V318.325C592.941 319.444 593.01 320.562 593.078 321.68C593.146 322.799 593.2 323.931 593.241 325.049C593.241 325.84 593.241 326.645 593.323 327.436C593.316 327.563 593.316 327.69 593.323 327.817C593.323 328.295 593.323 328.786 593.323 329.263C593.323 330.122 593.323 330.995 593.323 331.854C593.373 367.261 582.537 401.827 562.282 430.869C564.51 441.411 565.635 452.157 565.637 462.932C565.641 470.201 565.131 477.461 564.11 484.658C573.919 482.338 583.473 479.044 592.628 474.825C599.427 471.714 605.987 468.104 612.253 464.024C613.535 468.483 614.626 473.025 615.486 477.662C617.316 487.25 618.229 496.991 618.213 506.752C618.218 514.513 617.639 522.263 616.481 529.937C630.031 528.531 643.333 525.321 656.032 520.391C662.697 517.808 669.168 514.755 675.399 511.253C676.334 516.47 676.998 521.733 677.39 527.019C677.681 530.856 677.826 534.729 677.826 538.639C677.833 549.325 676.732 559.984 674.54 570.443C690.496 569.787 706.253 566.639 721.237 561.115C731.985 532.347 737.473 501.88 737.439 471.17C737.557 464.433 737.362 457.772 736.853 451.19Z" fill="white"/>
</g>
<defs>
<filter id="filter0_ddi_1884_2045" x="58.0922" y="192.612" width="770.769" height="740.723" filterUnits="userSpaceOnUse" color-interpolation-filters="sRGB">
<feFlood flood-opacity="0" result="BackgroundImageFix"/>
<feColorMatrix in="SourceAlpha" type="matrix" values="0 0 0 0 0 0 0 0 0 0 0 0 0 0 0 0 0 0 127 0" result="hardAlpha"/>
<feOffset dy="70.6182"/>
<feGaussianBlur stdDeviation="45.6942"/>
<feColorMatrix type="matrix" values="0 0 0 0 0 0 0 0 0 0 0 0 0 0 0 0 0 0 0.18 0"/>
<feBlend mode="normal" in2="BackgroundImageFix" result="effect1_dropShadow_1884_2045"/>
<feColorMatrix in="SourceAlpha" type="matrix" values="0 0 0 0 0 0 0 0 0 0 0 0 0 0 0 0 0 0 127 0" result="hardAlpha"/>
<feOffset dy="8.30803"/>
<feGaussianBlur stdDeviation="4.15401"/>
<feComposite in2="hardAlpha" operator="out"/>
<feColorMatrix type="matrix" values="0 0 0 0 0 0 0 0 0 0 0 0 0 0 0 0 0 0 0.1 0"/>
<feBlend mode="normal" in2="effect1_dropShadow_1884_2045" result="effect2_dropShadow_1884_2045"/>
<feBlend mode="normal" in="SourceGraphic" in2="effect2_dropShadow_1884_2045" result="shape"/>
<feColorMatrix in="SourceAlpha" type="matrix" values="0 0 0 0 0 0 0 0 0 0 0 0 0 0 0 0 0 0 127 0" result="hardAlpha"/>
<feOffset dy="-33.2321"/>
<feGaussianBlur stdDeviation="24.9241"/>
<feComposite in2="hardAlpha" operator="arithmetic" k2="-1" k3="1"/>
<feColorMatrix type="matrix" values="0 0 0 0 0 0 0 0 0 0 0 0 0 0 0 0 0 0 0.12 0"/>
<feBlend mode="normal" in2="shape" result="effect3_innerShadow_1884_2045"/>
</filter>
<linearGradient id="paint0_linear_1884_2045" x1="0.595703" y1="0.324219" x2="989.35" y2="881.255" gradientUnits="userSpaceOnUse">
<stop offset="0.01" stop-color="#FF387E"/>
<stop offset="0.18" stop-color="#FF386D"/>
<stop offset="0.67" stop-color="#F44A53"/>
<stop offset="1" stop-color="#F35E3A"/>
</linearGradient>
</defs>
</svg>
