<?xml version="1.0" standalone="no"?><!DOCTYPE svg PUBLIC "-//W3C//DTD SVG 1.1//EN" "http://www.w3.org/Graphics/SVG/1.1/DTD/svg11.dtd"><svg t="1685370140372" class="icon" viewBox="0 0 1024 1024" version="1.1" xmlns="http://www.w3.org/2000/svg" p-id="3238" width="16" height="16" xmlns:xlink="http://www.w3.org/1999/xlink"><path d="M112.158 487.458c0-97.424-0.158-189.84-0.158-306.516C222.76 145.854 344.666 103.972 511.948 66c167.28 37.972 289.188 79.854 399.946 114.942 0 116.676-0.156 209.092-0.156 306.516 0 274.476-224.048 425.472-399.79 472.542-175.744-47.07-399.79-198.066-399.79-472.542z m150.146 40.696a1 1 0 0 0 0.092 1.346l154.316 147.454a1 1 0 0 0 1.364 0.018l328.336-298.34a1 1 0 0 0 0-1.48l-24.84-22.648a1 1 0 0 0-1.282-0.054L417.98 586.974a1 1 0 0 1-1.188 0.024l-128.012-90.588a1 1 0 0 0-1.36 0.194l-25.116 31.55z" fill="#42B800" p-id="3239"></path></svg>