<?xml version="1.0" standalone="no"?><!DOCTYPE svg PUBLIC "-//W3C//DTD SVG 1.1//EN" "http://www.w3.org/Graphics/SVG/1.1/DTD/svg11.dtd"><svg t="1661955470784" class="icon" viewBox="0 0 1024 1024" version="1.1" xmlns="http://www.w3.org/2000/svg" p-id="12988" xmlns:xlink="http://www.w3.org/1999/xlink" width="16" height="16"><path d="M524.117333 106.666667c-52.096 0-94.293333 38.592-94.293333 86.208 0 122.752 94.293333 299.712 94.293333 299.712s94.293333-177.770667 94.293334-299.712C617.984 145.28 575.808 106.666667 524.117333 106.666667m-322.133333 282.453333c94.698667 75.946667 289.472 113.322667 289.472 113.322667s-78.976-181.461333-173.269333-257.002667c-36.8-29.568-92.629333-20.949333-124.885334 18.474667-32.256 39.402667-28.117333 95.637333 8.682667 125.226666m562.410667-101.845333a36.48 36.48 0 0 1 21.504-6.976c14.464 0 28.928 7.808 38.869333 20.544 15.701333 20.522667 14.464 48.021333-3.306667 61.568-45.504 34.496-119.104 59.52-178.24 75.541333 33.066667-55.018667 76.906667-117.824 121.173334-150.677333m84.757333 110.848c37.632-28.309333 43.008-84.565333 12.010667-125.226667-19.029333-25.024-47.573333-38.165333-75.264-38.165333-17.386667 0-34.752 5.333333-49.216 16.426667-97.6 73.493333-181.546667 253.312-181.546667 253.312s197.674667-33.28 294.016-106.346667m21.504 117.418667c-117.44-27.093333-307.242667 22.592-307.242667 22.592s149.290667 128.085333 265.898667 155.178666c45.482667 10.666667 91.797333-20.522667 103.381333-69.781333 11.157333-48.853333-16.128-97.301333-62.037333-107.989333M537.386667 557.44s-5.802667 202.410667 48.789333 312.426667c21.098667 43.093333 76.501333 59.52 123.648 36.544 47.146667-22.997333 67.818667-76.373333 46.72-119.466667C701.525333 676.096 537.386667 557.44 537.386667 557.44M291.712 786.56c-20.672 43.093333 0.426667 96.469333 47.573333 118.634667 47.146667 22.592 102.122667 5.76 123.221334-37.354667 53.76-111.253333 45.909333-312.426667 45.909333-312.426667s-163.349333 120.704-216.704 231.146667M174.293333 510.229333c-47.552 10.666667-76.906667 61.184-64.917333 112.490667 11.989333 51.328 59.946667 84.16 107.946667 73.493333 122.794667-27.925333 278.698667-160.938667 278.698666-160.938666s-199.317333-52.949333-321.706666-25.045334" fill="#ec535e" p-id="12989"></path></svg>