<?xml version="1.0" standalone="no"?><!DOCTYPE svg PUBLIC "-//W3C//DTD SVG 1.1//EN" "http://www.w3.org/Graphics/SVG/1.1/DTD/svg11.dtd"><svg t="1688808933912" class="icon" viewBox="0 0 1024 1024" version="1.1" xmlns="http://www.w3.org/2000/svg" p-id="2194" xmlns:xlink="http://www.w3.org/1999/xlink" width="16" height="16"><path d="M512 128C299.946667 128 128 299.946667 128 512 128 724.053333 299.946667 896 512 896 724.053333 896 896 724.053333 896 512 896 490.666667 894.293333 469.333333 890.453333 448 878.933333 426.666667 853.333333 426.666667 853.333333 426.666667L768 426.666667 768 384C768 341.333333 725.333333 341.333333 725.333333 341.333333L640 341.333333 640 298.666667C640 256 597.333333 256 597.333333 256L554.666667 256 554.666667 170.666667C554.666667 128 512 128 512 128M405.333333 256C440.746667 256 469.333333 284.586667 469.333333 320 469.333333 355.413333 440.746667 384 405.333333 384 369.92 384 341.333333 355.413333 341.333333 320 341.333333 284.586667 369.92 256 405.333333 256M277.333333 426.666667C312.746667 426.666667 341.333333 455.253333 341.333333 490.666667 341.333333 526.08 312.746667 554.666667 277.333333 554.666667 241.92 554.666667 213.333333 526.08 213.333333 490.666667 213.333333 455.253333 241.92 426.666667 277.333333 426.666667M490.666667 469.333333C526.08 469.333333 554.666667 497.92 554.666667 533.333333 554.666667 568.746667 526.08 597.333333 490.666667 597.333333 455.253333 597.333333 426.666667 568.746667 426.666667 533.333333 426.666667 497.92 455.253333 469.333333 490.666667 469.333333M704 554.666667C739.413333 554.666667 768 583.253333 768 618.666667 768 654.08 739.413333 682.666667 704 682.666667L704 682.666667C668.586667 682.666667 640 654.08 640 618.666667L640 618.666667C640 583.253333 668.586667 554.666667 704 554.666667M469.333333 682.666667C504.746667 682.666667 533.333333 711.253333 533.333333 746.666667 533.333333 782.08 504.746667 810.666667 469.333333 810.666667 433.92 810.666667 405.333333 782.08 405.333333 746.666667 405.333333 711.253333 433.92 682.666667 469.333333 682.666667Z" p-id="2195" fill="#1296db"></path></svg>