<?xml version="1.0" standalone="no"?><!DOCTYPE svg PUBLIC "-//W3C//DTD SVG 1.1//EN" "http://www.w3.org/Graphics/SVG/1.1/DTD/svg11.dtd"><svg t="1688909713109" class="icon" viewBox="0 0 1024 1024" version="1.1" xmlns="http://www.w3.org/2000/svg" p-id="2292" xmlns:xlink="http://www.w3.org/1999/xlink" width="16" height="16"><path d="M512 384m-96 0a96 96 0 1 0 192 0 96 96 0 1 0-192 0Z" p-id="2293" fill="#41D789"></path><path d="M512 64C336 64 192 208 192 384c0 51.2 12.8 99.2 32 140.8 48 96 252.8 406.4 259.2 419.2 6.4 9.6 16 16 25.6 16s22.4-6.4 25.6-16c9.6-12.8 211.2-323.2 259.2-419.2 22.4-44.8 32-92.8 32-140.8C832 208 688 64 512 64z m0 480c-89.6 0-160-70.4-160-160s70.4-160 160-160 160 70.4 160 160-70.4 160-160 160z" p-id="2294" fill="#41D789"></path></svg>