<svg t="1662457456016" class="icon" viewBox="0 0 1024 1024" version="1.1" xmlns="http://www.w3.org/2000/svg" p-id="18003" data-spm-anchor-id="a313x.7781069.0.i34" width="16" height="16"><path d="M128 960l0-896 576 0 192 192 0 704-768 0zM832 320l-192-192-448 0 0 768 640 0 0-576zM448 512l-192 0 0-256 192 0 0 256zM384 320l-64 0 0 128 64 0 0-128zM384 768l64 0 0 64-192 0 0-64 64 0 0-128-64 0 0-64 128 0 0 192zM640 448l64 0 0 64-192 0 0-64 64 0 0-128-64 0 0-64 128 0 0 192zM704 832l-192 0 0-256 192 0 0 256zM640 640l-64 0 0 128 64 0 0-128z" p-id="18004" data-spm-anchor-id="a313x.7781069.0.i30" class="" fill="#f15632"></path></svg>