<svg t="1669814809060" class="icon" viewBox="0 0 1024 1024" version="1.1" xmlns="http://www.w3.org/2000/svg" p-id="5447" width="16" height="16"><path d="M318.04207 960.150023h387.31286V1024H318.04207v-63.849977z m557.779799-312.017887l69.871974 116.253958a77.582972 77.582972 0 0 1 13.251996 21.081992 70.173975 70.173975 0 0 1-17.467994 74.691973 72.281974 72.281974 0 0 1-52.404981 20.479993H134.325136a87.461968 87.461968 0 0 1-37.345986-9.034997 79.690971 79.690971 0 0 1-27.10599-25.900991 72.583974 72.583974 0 0 1-9.637997-34.936987 74.871973 74.871973 0 0 1 9.637997-35.538987l84.931969-141.552949V435.501213a293.646894 293.646894 0 0 1 16.865994-95.171966 352.737873 352.737873 0 0 1 49.994982-90.352967 381.529862 381.529862 0 0 1 62.041977-62.643978 366.651868 366.651868 0 0 1 74.089974-46.983983 146.913947 146.913947 0 0 1 46.379983-98.785964 158.237943 158.237943 0 0 1 214.437922 0.603 141.612949 141.612949 0 0 1 45.779984 99.387964 335.991879 335.991879 0 0 1 74.088973 46.982983 321.535884 321.535884 0 0 1 61.439978 63.247977 331.95688 331.95688 0 0 1 48.789982 89.147968 274.250901 274.250901 0 0 1 16.865994 93.966966l8.432997 209.015924v3.613999z m-73.487974 32.526988a35.779987 35.779987 0 0 0-2.409999-4.818998l-4.817998-7.829997a17.467994 17.467994 0 0 1-8.432997-15.059995V434.900213a231.724916 231.724916 0 0 0-52.404981-140.347949 286.297897 286.297897 0 0 0-131.312953-96.376966 325.812882 325.812882 0 0 0-34.333987-9.034996 327.679882 327.679882 0 0 0-28.30999-5.420998 218.051921 218.051921 0 0 0-28.91299-1.205 195.703929 195.703929 0 0 0-28.30999 1.205c-6.023998 0.602-14.456995 1.806999-24.094991 3.613998s-21.684992 5.419998-34.936987 9.636997a293.224894 293.224894 0 0 0-133.721952 96.376965 231.784916 231.784916 0 0 0-53.609981 142.154949v208.413924a53.066981 53.066981 0 0 1-1.203999 10.239997 60.776978 60.776978 0 0 1-4.215999 9.035996l-83.727969 140.949949h728.847736L802.935895 680.660124h-0.602z m-245.759911-593.919785a78.907971 78.907971 0 0 0-113.241959 27.70799 385.505861 385.505861 0 0 1 69.872975-4.818999 428.392845 428.392845 0 0 1 68.667975 5.420998 79.449971 79.449971 0 0 0-24.696991-28.309989h-0.602z m0 0" p-id="5448" fill="#d4b106"></path></svg>