<?xml version="1.0" standalone="no"?><!DOCTYPE svg PUBLIC "-//W3C//DTD SVG 1.1//EN" "http://www.w3.org/Graphics/SVG/1.1/DTD/svg11.dtd"><svg t="1661955229130" class="icon" viewBox="0 0 1024 1024" version="1.1" xmlns="http://www.w3.org/2000/svg" p-id="3094" xmlns:xlink="http://www.w3.org/1999/xlink" width="16" height="16"><path d="M256 192.672l0-96.672c0-52.928-43.072-96-96-96s-96 43.072-96 96l0 96.672c-38.656 29.28-64 75.136-64 127.328s25.344 98.048 64 127.264l0 480.736c0 52.928 43.072 96 96 96s96-43.072 96-96l0-480.736c38.656-29.184 64-75.072 64-127.264s-25.344-98.048-64-127.328zM128 96c0-17.696 14.304-32 32-32s32 14.304 32 32l0 67.2c-10.336-2.08-21.024-3.2-32-3.2s-21.664 1.12-32 3.2l0-67.2zM192 928c0 17.696-14.304 32-32 32s-32-14.304-32-32l0-451.264c10.336 2.144 21.024 3.264 32 3.264s21.664-1.12 32-3.264l0 451.264zM251.68 346.88c-0.512 1.696-0.96 3.36-1.568 5.056-3.04 8.448-6.944 16.448-12.096 23.552-0.128 0.192-0.32 0.32-0.448 0.512-5.568 7.616-12.192 14.368-19.712 20.064-0.128 0.128-0.224 0.192-0.32 0.256-7.712 5.824-16.32 10.496-25.568 13.76-10.016 3.616-20.672 5.92-31.968 5.92s-21.952-2.304-32-5.952c-9.248-3.264-17.856-7.936-25.568-13.76-0.096-0.064-0.192-0.128-0.32-0.256-7.52-5.696-14.144-12.448-19.712-20.064-0.128-0.192-0.32-0.32-0.448-0.512-5.152-7.136-9.056-15.136-12.096-23.552-0.608-1.696-1.056-3.36-1.568-5.056-2.528-8.544-4.288-17.472-4.288-26.848 0-9.44 1.76-18.368 4.32-26.944 0.512-1.696 0.96-3.36 1.568-4.992 3.008-8.448 6.912-16.448 12.096-23.616 0.128-0.192 0.32-0.32 0.448-0.512 5.568-7.552 12.192-14.368 19.712-20.064 0.128-0.064 0.224-0.192 0.32-0.256 7.68-5.728 16.288-10.432 25.536-13.728 10.048-3.584 20.704-5.888 32-5.888s21.952 2.304 32 5.888c9.248 3.328 17.856 8 25.568 13.76 0.096 0.064 0.192 0.192 0.32 0.256 7.52 5.696 14.144 12.512 19.712 20.064 0.128 0.192 0.32 0.32 0.448 0.512 5.152 7.136 9.056 15.136 12.064 23.584 0.608 1.632 1.088 3.296 1.568 4.992 2.56 8.576 4.32 17.504 4.32 26.944 0 9.376-1.76 18.304-4.32 26.88zM960 192.672l0-96.672c0-52.928-43.072-96-96-96s-96 43.072-96 96l0 96.672c-38.688 29.28-64 75.136-64 127.328s25.312 98.048 64 127.264l0 480.736c0 52.928 43.072 96 96 96s96-43.072 96-96l0-480.736c38.624-29.184 64-75.072 64-127.264s-25.376-98.048-64-127.328zM832 96c0-17.696 14.304-32 32-32s32 14.304 32 32l0 67.2c-10.368-2.08-21.056-3.2-32-3.2-11.008 0-21.696 1.12-32 3.2l0-67.2zM896 928c0 17.696-14.304 32-32 32s-32-14.304-32-32l0-451.264c10.304 2.144 20.992 3.264 32 3.264 10.944 0 21.632-1.12 32-3.264l0 451.264zM955.68 346.88c-0.512 1.696-0.992 3.36-1.568 5.056-3.072 8.448-6.944 16.448-12.128 23.552-0.128 0.192-0.32 0.32-0.448 0.512-5.568 7.616-12.192 14.368-19.68 20.064-0.128 0.128-0.256 0.192-0.32 0.256-7.744 5.824-16.32 10.496-25.568 13.76-10.016 3.616-20.704 5.92-31.968 5.92-11.328 0-21.952-2.304-32-5.952-9.248-3.264-17.888-7.936-25.568-13.76-0.128-0.064-0.192-0.128-0.32-0.256-7.552-5.696-14.176-12.448-19.744-20.064-0.128-0.192-0.32-0.32-0.448-0.512-5.12-7.136-9.056-15.136-12.064-23.552-0.64-1.696-1.056-3.36-1.568-5.056-2.528-8.544-4.288-17.472-4.288-26.848 0-9.44 1.76-18.368 4.32-26.944 0.512-1.696 0.928-3.36 1.568-4.992 3.008-8.448 6.944-16.448 12.064-23.616 0.128-0.192 0.32-0.32 0.448-0.512 5.568-7.552 12.192-14.368 19.744-20.064 0.128-0.064 0.192-0.192 0.32-0.256 7.68-5.76 16.32-10.432 25.568-13.76 10.016-3.552 20.64-5.856 31.968-5.856 11.264 0 21.952 2.304 32 5.888 9.248 3.328 17.824 8 25.568 13.76 0.064 0.064 0.192 0.192 0.32 0.256 7.488 5.696 14.112 12.512 19.68 20.064 0.128 0.192 0.32 0.32 0.448 0.512 5.184 7.2 9.056 15.2 12.128 23.616 0.576 1.632 1.056 3.328 1.568 4.992 2.528 8.544 4.288 17.472 4.288 26.912 0 9.376-1.76 18.304-4.32 26.88zM608 576.672l0-480.672c0-52.928-43.072-96-96-96s-96 43.072-96 96l0 480.672c-38.656 29.248-64 75.136-64 127.328s25.344 98.048 64 127.264l0 96.736c0 52.928 43.072 96 96 96s96-43.072 96-96l0-96.736c38.624-29.184 64-75.072 64-127.264s-25.376-98.048-64-127.328zM480 96c0-17.696 14.304-32 32-32s32 14.304 32 32l0 451.2c-10.368-2.048-21.056-3.2-32-3.2-10.976 0-21.664 1.12-32 3.2l0-451.2zM544 928c0 17.696-14.304 32-32 32s-32-14.304-32-32l0-67.264c10.336 2.144 21.024 3.264 32 3.264 10.944 0 21.632-1.12 32-3.264l0 67.264zM603.68 730.88c-0.512 1.696-0.992 3.36-1.568 5.056-3.072 8.448-6.944 16.448-12.128 23.552-0.128 0.192-0.32 0.32-0.448 0.512-5.568 7.616-12.192 14.368-19.68 20.064-0.128 0.128-0.256 0.192-0.32 0.256-7.744 5.824-16.32 10.496-25.568 13.76-10.016 3.616-20.704 5.92-31.968 5.92s-21.952-2.304-32-5.952c-9.248-3.264-17.856-7.936-25.568-13.76-0.096-0.064-0.192-0.128-0.32-0.256-7.52-5.696-14.144-12.448-19.712-20.064-0.128-0.192-0.32-0.32-0.448-0.512-5.152-7.136-9.056-15.136-12.096-23.552-0.608-1.696-1.056-3.36-1.568-5.056-2.528-8.544-4.288-17.472-4.288-26.848 0-9.44 1.76-18.368 4.32-26.944 0.512-1.696 0.96-3.36 1.568-4.992 3.04-8.448 6.944-16.448 12.096-23.616 0.128-0.192 0.32-0.32 0.448-0.512 5.568-7.552 12.192-14.368 19.712-20.064 0.128-0.064 0.224-0.192 0.32-0.256 7.712-5.76 16.32-10.432 25.568-13.76 10.016-3.552 20.672-5.856 31.968-5.856 11.264 0 21.952 2.304 32 5.888 9.248 3.328 17.824 8 25.568 13.76 0.064 0.064 0.192 0.192 0.32 0.256 7.488 5.696 14.112 12.512 19.68 20.064 0.128 0.192 0.32 0.32 0.448 0.512 5.184 7.2 9.056 15.2 12.128 23.616 0.576 1.632 1.056 3.328 1.568 4.992 2.528 8.544 4.288 17.472 4.288 26.912 0 9.376-1.76 18.304-4.32 26.88z" p-id="3095" fill="#35b46f"></path></svg>