<svg t="1664176240334" class="icon" viewBox="0 0 1138 1024" version="1.1" xmlns="http://www.w3.org/2000/svg" p-id="811" width="128" height="128"><path d="M311.38489 10.405787C275.758297 43.475026 247.09829 91.888391 226.904008 149.913882h168.961764c-20.017913-58.025491-48.854289-106.438856-84.480882-139.508095zM222.9357 551.065794c-1.32277-3.439201-2.557354-6.790217-3.79194-10.229418s-3.174647-9.523941-4.673785-14.374096-3.439201-10.934895-5.026525-16.490527c-0.970031-3.351016-1.851877-6.790217-2.733724-10.229417-1.851877-7.054771-3.527385-14.109542-5.114708-21.340683-0.617292-2.733724-1.1464-5.467447-1.763693-8.201171-0.881846-4.673786-2.028247-8.818464-2.821909-13.933172a194.623493 194.623493 0 0 0-69.842232 215.964175 201.325525 201.325525 0 0 1 103.616948-101.147778l-0.529108-1.234585c-2.557354-6.172925-4.93834-12.434034-7.319324-18.783328zM394.366633 540.483638c2.733724-7.672063 5.202894-15.432311 7.583879-23.368929 0.881846-2.821908 1.763693-5.555632 2.557354-8.818464 1.851877-6.702032 3.61557-13.580434 5.291079-20.458835 0.881846-3.880124 1.851877-7.760248 2.733723-11.640372 1.410954-6.437478 2.645539-12.874957 3.880124-19.400621a635.899414 635.899414 0 0 0 10.493972-113.93455A602.91836 602.91836 0 0 0 397.012172 153.882191H225.493054a602.91836 602.91836 0 0 0-29.630038 189.420599 638.10403 638.10403 0 0 0 11.640372 120.019291c0.705477 3.61557 1.410954 7.319325 2.204616 10.934895 1.32277 6.261109 2.821908 12.345849 4.321047 18.430589 1.1464 4.497416 2.292801 8.818464 3.527386 13.580434s2.821908 9.523941 4.232862 14.197726 3.703755 11.728557 5.732002 17.636927l3.439201 9.435757c2.645539 7.054771 5.379263 14.021357 8.289355 20.811574s4.585601 10.934895 7.142956 16.225973a210.143989 210.143989 0 0 1 130.072339 0c2.116431-4.497416 3.968309-8.818464 5.908371-13.756803 3.703755-8.37754 7.142956-17.019635 10.405787-25.838099zM311.38489 317.464692a61.729246 61.729246 0 1 1 61.729246-61.729246 61.729246 61.729246 0 0 1-61.729246 61.729246zM425.672179 456.26731c-0.529108 3.262832-1.32277 6.349294-1.940062 9.612125-0.970031 5.114709-2.028247 10.141233-3.174647 15.167758s-2.292801 9.612125-3.439201 14.285911-2.910093 11.464003-4.497416 17.019635l-2.910093 9.70031c-2.204616 7.054771-4.409232 14.021357-6.790217 20.811574l-1.32277 3.527385c-3.086462 8.37754-6.261109 16.666896-9.612125 24.691699a201.942818 201.942818 0 0 1 103.616948 101.147778 199.297279 199.297279 0 0 0 8.818464-60.318292 194.535308 194.535308 0 0 0-78.748881-155.645883zM266.234356 663.236652h4.497417l11.816741-53.880813h-4.497417l-11.816741 53.880813zM271.525434 587.221495l-5.90837 1.234585v12.081295h5.90837zM275.934666 600.537375h8.112987v-15.520496l-8.112987 1.32277zM294.894363 663.236652h4.409232l3.968309-53.880813h-4.409232l-3.968309 53.880813z" fill="#e6e6e6" opacity=".64" p-id="812"></path><path d="M296.658056 583.605925c-2.733724 0-5.467447 0.617292-8.201171 0.881846v16.049604h8.201171zM301.067288 600.537375H308.827536v-17.636927h-8.112987zM319.586061 609.355839l3.880124 53.880813h4.409232l-3.880124-53.880813h-4.409232zM321.702493 583.429556h-8.112987v17.636927h8.112987zM326.464463 600.537375h8.201171v-16.049604c-2.733724 0-5.467447-0.705477-8.201171-0.881846zM340.221266 609.355839l11.816742 53.880813h4.497416l-11.816741-53.880813h-4.497417zM346.835114 586.339649l-8.112987-1.32277v15.520496h8.112987zM351.244346 600.537375h5.908371v-12.081295l-5.908371-1.234585z" fill="#e6e6e6" opacity=".64" p-id="813"></path><path d="M970.741418 595.863589a4.585601 4.585601 0 0 0 0.881846-2.910093 12.16948 12.16948 0 0 0-0.529108-2.2928 11.816741 11.816741 0 0 0-1.499138-2.380985 13.668619 13.668619 0 0 0-2.292801-2.204616h-0.440923a23.368929 23.368929 0 0 0-3.439201-2.292801 27.249053 27.249053 0 0 0-5.908371-2.2928 19.665174 19.665174 0 0 0-5.379262-0.705477H947.107935l-1.499139 0.705477a4.144678 4.144678 0 0 0-1.322769 1.1464 4.409232 4.409232 0 0 0-0.970031 2.645539v1.1464a16.314158 16.314158 0 0 0 8.818464 9.347572 17.636927 17.636927 0 0 0 18.606958 0.088184z m-15.344127-6.437478l-4.144678-4.409232a1.058216 1.058216 0 1 1 1.587324-1.499139l3.880124 4.056494 9.435756 0.793661a0.970031 0.970031 0 0 1 0.970031 1.146401 0.970031 0.970031 0 0 1-1.058216 0.970031l-9.788495-0.705478a1.587323 1.587323 0 0 1-0.881846-0.352738z" fill="#e6e6e6" opacity=".64" p-id="814"></path><path d="M1060.689747 592.600758a221.96073 221.96073 0 0 0-85.627282-83.86359 101.853255 101.853255 0 0 1-78.572511 38.713056h-1.410954a100.971409 100.971409 0 0 1-63.933862-22.575267l-5.996555 2.910093c-35.891147 18.166035-84.216328 55.73269-112.78815 131.130555l-0.440924 1.058215A28.042714 28.042714 0 0 0 743.842348 696.658629a28.307268 28.307268 0 0 0 20.72339-17.636927A195.769893 195.769893 0 0 1 811.479964 604.946607c2.733724-2.645539 5.467447-5.114709 8.289356-7.495694a4.409232 4.409232 0 1 1 5.643817 6.790217c-2.380985 1.940062-4.585601 4.056493-6.878402 6.172924l-8.818464 110.671719h51.852567a4.409232 4.409232 0 0 1 4.409232 4.409232v18.871512a4.409232 4.409232 0 0 1-4.409232 4.409232h-13.31588v38.97761h13.13951a4.409232 4.409232 0 0 1 4.409232 4.409231v69.22494a37.213917 37.213917 0 0 0 2.028247-8.201171l16.843266-108.290734a19.841543 19.841543 0 0 1 38.536686-1.410954l21.252497 114.640028a34.656562 34.656562 0 0 0 40.035825 28.219083 34.656562 34.656562 0 0 0 28.130899-40.035825l-25.661729-192.418877a404.502928 404.502928 0 0 1-50.000689 5.467448H934.938455a36.772993 36.772993 0 0 1-0.793661-73.457803h3.880124v-0.529107a2.645539 2.645539 0 0 1 0-0.881847 12.16948 12.16948 0 0 1 0-1.763692 8.818464 8.818464 0 0 1 1.499138-2.910093 19.312435 19.312435 0 0 1 21.164313-2.46917 26.455391 26.455391 0 0 1 3.61557 1.587323 28.219084 28.219084 0 0 1 4.321048 2.821909l1.058215 1.058215h3.086462c-1.851877-2.557354-3.880124-5.202894-5.996555-7.848432a4.409232 4.409232 0 1 1 6.790217-5.555633c3.351016 4.056493 6.349294 8.201171 8.818464 11.904926a121.606614 121.606614 0 0 0 12.257664-2.380985 4.409232 4.409232 0 0 1 2.204616 8.818464 204.235618 204.235618 0 0 1-22.046159 3.968308v11.375819a13.756803 13.756803 0 0 1-2.028247 5.643816l-0.529107 0.529108a57.143645 57.143645 0 0 1 2.380985 32.011023 24.427144 24.427144 0 0 1-2.380985 6.349294 305.383396 305.383396 0 0 0 76.720633-19.753359 23.545298 23.545298 0 0 0 12.786773-14.550465 24.956252 24.956252 0 0 0-1.058216-20.723389z" fill="#e6e6e6" opacity=".64" p-id="815"></path><path d="M934.409348 594.717189a28.042714 28.042714 0 0 0-23.457114 42.41681 27.689976 27.689976 0 0 0 24.691698 13.404065h0.970031l16.314158-1.058216c7.407509-8.818464 6.613848-27.689976 3.351016-37.831209a35.273855 35.273855 0 0 1-7.23114-2.645539 18.07785 18.07785 0 0 1-11.023079-14.285911zM961.393846 614.735102a45.679642 45.679642 0 0 1 0.881847 5.379262l9.435756-0.970031a42.41681 42.41681 0 0 0-1.234585-5.291078zM972.769664 628.844643l-9.70031 1.058216v5.467448l9.788495-1.146401a51.323458 51.323458 0 0 0-0.088185-5.379263zM972.769664 626.640028c0-1.763693 0-3.61557-0.529107-5.379263l-9.435756 0.970031v5.379263zM970.21231 643.747847l-9.612125 0.881846a27.337237 27.337237 0 0 1-1.851878 3.968309q4.497416 0 8.818464-1.058216a15.608681 15.608681 0 0 0 2.645539-3.791939zM959.630154 607.944885v0.705477c0 1.234585 0.793662 2.46917 1.234585 3.968308l8.818463-0.970031a24.515329 24.515329 0 0 0-1.851877-4.321047zM971.711449 639.691354c0-1.058216 0-2.116431 0.617292-3.262832l-9.964864 1.1464a42.152256 42.152256 0 0 1-1.058215 5.026525l9.788494-0.881847c0.264554-0.705477 0.440923-1.410954 0.617293-2.028246zM750.632565 729.904237h106.262487v10.053049H750.632565zM836.259847 748.775749h7.583879v38.97761h-7.583879zM750.632565 796.571822h106.262487v120.19566H750.632565zM763.772076 748.775749h7.583879v38.97761h-7.583879zM831.850615 787.753359v-38.97761h-24.603513l-3.262832 38.97761h27.866345zM801.867839 446.567A93.299346 93.299346 0 1 0 906.278449 352.738546v12.874957a6.966586 6.966586 0 0 1-3.79194 6.261109 11.464003 11.464003 0 0 1-5.291078 1.234585 12.698588 12.698588 0 0 1-6.525663-1.763692 6.878402 6.878402 0 0 1-3.527386-6.08474v-12.874957a93.122976 93.122976 0 0 0-85.274543 94.181192z m97.0031-44.092319c74.339649 1.410954 79.366173 27.601791 78.660696 59.789184s-37.037547 66.491216-81.041681 65.60937-79.366173-36.50844-78.484327-68.695832 3.086462-57.849122 81.041681-56.349983z" fill="#e6e6e6" opacity=".64" p-id="816"></path><path d="M839.258125 494.539442a1.940062 1.940062 0 0 0 2.645539 0 1.940062 1.940062 0 0 0 0.617292-1.940062c-6.261109-23.809852-6.790217-46.296934 14.462281-67.461247 4.76197-4.76197-2.028247-13.051326-8.201172-10.229418-18.430589 8.112987-22.487082 25.661729-22.928005 44.974165a53.968998 53.968998 0 0 0 13.404065 34.656562zM900.105524 368.082673a2.46917 2.46917 0 0 0 1.499139-2.46917l0.617292-26.455391a14.285911 14.285911 0 0 1-4.321047 0.705477 16.843266 16.843266 0 0 1-5.996555-1.058215l-0.617293 26.455391a2.46917 2.46917 0 0 0 1.499139 2.204616 8.024802 8.024802 0 0 0 7.319325 0.617292z" fill="#e6e6e6" opacity=".64" p-id="817"></path><path d="M311.38489 255.647261m-43.827764 0a43.827764 43.827764 0 1 0 87.655528 0 43.827764 43.827764 0 1 0-87.655528 0Z" fill="#e6e6e6" opacity=".64" p-id="818"></path><path d="M494.808934 729.904237h70.900448v27.866345h-70.900448z" fill="#e6e6e6" opacity=".21" p-id="819"></path><path d="M746.223333 925.938684a4.497416 4.497416 0 0 1-4.409232-4.409232v-8.818463H453.626709a16.402342 16.402342 0 0 1 0-32.804685h167.550809a7.672063 7.672063 0 1 0 0-15.255942H317.645999a16.490527 16.490527 0 0 1 0-32.89287h229.280055a7.583879 7.583879 0 1 0 0-15.167757H336.782065a16.402342 16.402342 0 0 1-16.402342-16.402343v-2.733723H171.435872a4.409232 4.409232 0 0 1-4.409232-4.409232v-26.455391h-20.635205a4.409232 4.409232 0 0 1 0-8.818464h20.635205v-27.866345h-20.635205a4.409232 4.409232 0 0 1 0-8.818464h419.317947V273.372373H431.756919a657.592835 657.592835 0 0 1 3.968309 70.54771 641.631416 641.631416 0 0 1-8.818464 103.264209 203.353772 203.353772 0 0 1 86.332759 165.258009 206.969342 206.969342 0 0 1-13.492249 74.251464 4.409232 4.409232 0 0 1-4.144678 2.910093 4.409232 4.409232 0 0 1-4.056493-2.821908A192.8598 192.8598 0 0 0 388.193709 579.284878c-1.851877 4.144678-3.61557 8.818464-5.555633 12.434033a4.497416 4.497416 0 0 1-3.968308 2.557355 3.61557 3.61557 0 0 1-1.410954 0c-3.791939-1.234585-7.583879-2.292801-11.375818-3.262832v13.404065l22.663451 61.729246A4.232863 4.232863 0 0 1 388.193709 670.203238a4.321047 4.321047 0 0 1-3.615571 1.851877H238.279826a4.321047 4.321047 0 0 1-3.61557-1.851877 4.232863 4.232863 0 0 1-0.529108-4.056493l22.663452-61.729246V590.837065c-3.791939 0.970031-7.583879 2.028247-11.375818 3.262832a4.321047 4.321047 0 0 1-5.291078-2.292801c-2.028247-3.968309-3.791939-8.289356-5.643817-12.522218a193.124354 193.124354 0 0 0-103.705133 106.879779 4.321047 4.321047 0 0 1-4.056493 2.821909 5.291078 5.291078 0 0 1-4.144678-2.910093 207.233896 207.233896 0 0 1-13.492249-74.251464 202.824664 202.824664 0 0 1 86.420944-165.258009 642.425078 642.425078 0 0 1-8.818464-103.26421 611.648639 611.648639 0 0 1 29.982776-191.53703A362.70341 362.70341 0 0 0 66.40797 271.873235a371.786428 371.786428 0 0 0-22.134344 388.012401c35.273855 63.669308 88.978298 114.640028 143.03548 163.847054 61.729246 55.73269 164.728901 258.910093 456.708233 183.776783A617.292456 617.292456 0 0 0 828.499599 925.938684z" fill="#e6e6e6" opacity=".21" p-id="820"></path><path d="M308.827536 583.076817h-8.112987v17.460558H308.827536z" fill="#e6e6e6" opacity=".21" p-id="821"></path><path d="M282.548514 609.355839h-4.497417l-11.816741 53.880813h4.497417l11.816741-53.880813z" fill="#e6e6e6" opacity=".21" p-id="822"></path><path d="M265.617064 588.45608v12.081295h5.90837v-13.31588z" fill="#e6e6e6" opacity=".21" p-id="823"></path><path d="M284.047653 585.016879l-8.112987 1.32277v14.197726h8.112987z" fill="#e6e6e6" opacity=".21" p-id="824"></path><path d="M335.282927 729.904237h70.900447v27.866345H335.282927z" fill="#e6e6e6" opacity=".21" p-id="825"></path><path d="M415.090023 729.904237h70.900448v27.866345h-70.900448z" fill="#e6e6e6" opacity=".21" p-id="826"></path><path d="M255.564015 729.904237H326.464463v27.866345h-70.900448z" fill="#e6e6e6" opacity=".21" p-id="827"></path><path d="M175.845104 729.904237h70.900447v27.866345h-70.900447z" fill="#e6e6e6" opacity=".21" p-id="828"></path><path d="M303.271904 609.355839h-4.409232l-3.968309 53.880813h4.409232l3.968309-53.880813z" fill="#e6e6e6" opacity=".21" p-id="829"></path><path d="M455.478586 225.5763l32.275577-32.275577h-64.551154l32.275577 32.275577z" fill="#e6e6e6" opacity=".21" p-id="830"></path><path d="M429.905042 257.410954c0 2.204616 0.705477 4.409232 0.970031 6.702033h56.87909l-32.275577-32.275577z" fill="#e6e6e6" opacity=".21" p-id="831"></path><path d="M429.11138 251.943507l23.280744-23.280744-34.303824-34.215639a582.018601 582.018601 0 0 1 11.02308 57.496383z" fill="#e6e6e6" opacity=".21" p-id="832"></path><path d="M530.347343 225.5763l32.275577-32.275577h-64.551154l32.275577 32.275577z" fill="#e6e6e6" opacity=".21" p-id="833"></path><path d="M565.709382 196.387186l-32.275577 32.275577 32.275577 32.275577v-64.551154z" fill="#e6e6e6" opacity=".21" p-id="834"></path><path d="M498.071766 264.112987h64.551154l-32.275577-32.275577-32.275577 32.275577z" fill="#e6e6e6" opacity=".21" p-id="835"></path><path d="M458.582685 228.750947l34.303824-34.303823 34.286187 34.303823-34.295005 34.286187z" fill="#e6e6e6" opacity=".21" p-id="836"></path><path d="M357.152717 588.45608l-5.908371-1.234585v13.31588h5.908371z" fill="#e6e6e6" opacity=".21" p-id="837"></path><path d="M313.589506 583.076817v17.636927h8.112987v-17.284188c-2.645539-0.176369-5.379263-0.352739-8.112987-0.352739z" fill="#e6e6e6" opacity=".21" p-id="838"></path><path d="M334.312896 584.487771c-2.733724 0-5.467447-0.705477-8.201172-0.881846v16.93145h8.201172z" fill="#e6e6e6" opacity=".21" p-id="839"></path><path d="M327.875417 663.236652l-3.880124-53.880813h-4.409232l3.880124 53.880813h4.409232z" fill="#e6e6e6" opacity=".21" p-id="840"></path><path d="M356.535424 663.236652l-11.816741-53.880813h-4.497417l11.816742 53.880813h4.497416z" fill="#e6e6e6" opacity=".21" p-id="841"></path><path d="M346.835114 586.339649l-8.112987-1.32277v15.520496h8.112987z" fill="#e6e6e6" opacity=".21" p-id="842"></path><path d="M288.456885 584.487771v16.049604h8.201171v-16.93145c-2.733724 0.176369-5.467447 0.617292-8.201171 0.881846z" fill="#e6e6e6" opacity=".21" p-id="843"></path><path d="M645.340109 420.993455L613.064532 453.269032l32.275577 32.275577v-64.551154z" fill="#e6e6e6" opacity=".21" p-id="844"></path><path d="M645.340109 495.862212l-32.275577 32.275576 32.275577 32.275577v-64.551153z" fill="#e6e6e6" opacity=".21" p-id="845"></path><path d="M645.340109 346.124699l-32.275577 32.275577 32.275577 32.275577v-64.551154z" fill="#e6e6e6" opacity=".21" p-id="846"></path><path d="M645.340109 272.93145h-1.675508l-30.600069 30.600069 32.275577 32.275577v-62.875646z" fill="#e6e6e6" opacity=".21" p-id="847"></path><path d="M575.586061 415.790561l34.303824-34.286186 34.295005 34.295005-34.303824 34.295005z" fill="#e6e6e6" opacity=".21" p-id="848"></path><path d="M645.340109 645.51154l-32.275577 32.275577 32.275577 32.275577V645.51154z" fill="#e6e6e6" opacity=".21" p-id="849"></path><path d="M575.559606 565.501619l34.303824-34.295005 34.286186 34.303823-34.295005 34.286187z" fill="#e6e6e6" opacity=".21" p-id="850"></path><path d="M575.621335 490.694592l34.295005-34.295005 34.295006 34.303823-34.303824 34.286187z" fill="#e6e6e6" opacity=".21" p-id="851"></path><path d="M575.586061 640.396831l34.303824-34.286187 34.295005 34.295005-34.303824 34.295005z" fill="#e6e6e6" opacity=".21" p-id="852"></path><path d="M577.614308 264.112987h61.464692l-30.688254-30.776439-30.776438 30.776439z" fill="#e6e6e6" opacity=".21" p-id="853"></path><path d="M645.340109 570.730968l-32.275577 32.275577 32.275577 32.187392v-64.462969z" fill="#e6e6e6" opacity=".21" p-id="854"></path><path d="M574.527846 260.93834l30.688253-30.688254-30.688253-30.688253v61.376507z" fill="#e6e6e6" opacity=".21" p-id="855"></path><path d="M574.527846 721.085773h70.812263v-4.76197l-35.450224-35.362039-35.362039 35.362039v4.76197z" fill="#e6e6e6" opacity=".21" p-id="856"></path><path d="M574.527846 729.904237h71.076817v27.866345h-71.076817z" fill="#e6e6e6" opacity=".21" p-id="857"></path><path d="M574.527846 635.193937l32.275577-32.187392-32.275577-32.275577v64.462969z" fill="#e6e6e6" opacity=".21" p-id="858"></path><path d="M574.527846 560.413365l32.275577-32.275577-32.275577-32.275576v64.551153z" fill="#e6e6e6" opacity=".21" p-id="859"></path><path d="M574.527846 335.807096l32.275577-32.275577-30.688254-30.600069h-1.587323v62.875646z" fill="#e6e6e6" opacity=".21" p-id="860"></path><path d="M574.527846 410.675853l32.275577-32.275577-32.275577-32.275577v64.551154z" fill="#e6e6e6" opacity=".21" p-id="861"></path><path d="M574.527846 485.544609l32.275577-32.275577-32.275577-32.275577v64.551154z" fill="#e6e6e6" opacity=".21" p-id="862"></path><path d="M574.527846 710.062694l32.275577-32.275577-32.275577-32.275577v64.551154z" fill="#e6e6e6" opacity=".21" p-id="863"></path><path d="M1135.382134 402.210127c-13.933173-104.322425-87.390975-204.059249-189.685153-229.280055C849.752096 149.913882 749.750719 192.507062 650.983926 183.864967c-77.60248-6.790217-148.150189-44.709611-224.694454-58.466414-10.493972-1.851877-21.164313-3.086462-31.834654-3.968308a493.833965 493.833965 0 0 1 21.076128 63.052015h155.734068a4.232863 4.232863 0 0 1 1.940062 1.058215l76.015157 75.926972a2.116431 2.116431 0 0 1 2.028247 0.440924 2.028247 2.028247 0 0 1 0 2.116431l1.1464 1.058216a5.026524 5.026524 0 0 1 0.970031 1.410954 5.732001 5.732001 0 0 1 0 1.763692v452.828109h8.818463a4.409232 4.409232 0 0 1 0 8.818464h-8.818463v27.866345h8.818463a4.409232 4.409232 0 0 1 0 8.818464h-8.818463v26.455391a4.409232 4.409232 0 0 1-4.409232 4.409232H329.198187v2.733723a7.583879 7.583879 0 0 0 7.583878 7.583879h209.614882a16.402342 16.402342 0 1 1 0 32.804685H317.645999a7.672063 7.672063 0 0 0 0 15.255942h303.531519a16.490527 16.490527 0 1 1 0 32.892869h-167.550809a7.583879 7.583879 0 0 0 0 15.167758H741.814101V792.16259a4.409232 4.409232 0 0 1 4.409232-4.409231h13.139511v-38.97761H746.223333a4.409232 4.409232 0 0 1-4.409232-4.409232v-18.871512a4.409232 4.409232 0 0 1 4.409232-4.409232h54.498106l8.818463-100.795039a192.8598 192.8598 0 0 0-36.243885 61.729245A37.037547 37.037547 0 0 1 745.606041 705.477093a41.182225 41.182225 0 0 1-7.319325 0.705477 36.772993 36.772993 0 0 1-34.656562-48.942474v-1.322769C733.348376 577.785739 783.878173 538.80813 821.180274 520.289356l2.821909-1.410954a101.94144 101.94144 0 0 1-24.33896-37.478471l-8.818464-1.940062a15.079573 15.079573 0 0 1-11.904926-12.963141l-1.587323-11.375819a15.520496 15.520496 0 0 1 8.112986-15.60868l8.112987-4.144678A101.676886 101.676886 0 0 1 887.406936 343.920083v-6.613848a17.636927 17.636927 0 1 1 27.513607-14.46228 17.636927 17.636927 0 0 1-8.818464 15.079572v6.349294A101.588701 101.588701 0 0 1 996.667701 438.718567l7.936617 4.497416a15.608681 15.608681 0 0 1 7.495694 15.96142l-1.940062 11.464002a15.344127 15.344127 0 0 1-12.434033 12.434034l-8.818464 1.234585a99.913193 99.913193 0 0 1-8.818464 17.196004 232.190148 232.190148 0 0 1 88.184637 86.597313 34.127454 34.127454 0 0 1 3.174647 27.337238 32.275577 32.275577 0 0 1-17.636927 19.929728 271.696865 271.696865 0 0 1-58.113676 17.196004l14.021357 105.821564c15.344127-18.518774 29.894592-37.743024 43.386841-57.760937 58.730968-87.920083 96.209439-194.0062 82.276266-298.416811z" fill="#e6e6e6" opacity=".21" p-id="864"></path><path d="M582.376278 272.93145l27.513607 27.513607 27.601791-27.513607h-55.115398z" fill="#e6e6e6" opacity=".21" p-id="865"></path><path d="M914.567804 745.512918a10.84671 10.84671 0 0 0-10.84671-7.672064 11.111264 11.111264 0 0 0-10.405787 8.818464l-16.755081 107.761626a43.034103 43.034103 0 0 1-10.758526 23.809852V899.483293a658.121943 658.121943 0 0 0 57.849122-49.64795l8.818464-8.818464z" fill="#e6e6e6" opacity=".21" p-id="866"></path><path d="M575.621335 340.957079l34.303824-34.295005 34.286187 34.303823-34.295006 34.295006z" fill="#e6e6e6" opacity=".21" p-id="867"></path><path d="M795.077622 787.753359l3.262831-38.97761h-22.575267v38.97761h19.312436z" fill="#e6e6e6" opacity=".21" p-id="868"></path><path d="M249.920198 255.735446a61.729246 61.729246 0 0 1 61.729246-61.729246V4.409232c-71.076817 63.669308-119.754736 191.7134-119.931106 338.893558 0 94.004823 19.929728 179.808474 52.910782 246.916983a211.643128 211.643128 0 0 1 67.373063-11.287634V317.464692a61.729246 61.729246 0 0 1-62.081985-61.729246z" fill="#e6e6e6" opacity=".4" p-id="869"></path><path d="M896.666323 528.225973c44.092318 0.881846 80.424389-33.510162 81.041681-65.609369s-4.321047-58.378229-78.660696-59.789184c-77.955219-1.499139-80.248019 24.515329-80.865311 56.702721s34.392008 67.90217 78.484326 68.695832z m-57.408198-33.686531a53.968998 53.968998 0 0 1-13.404065-34.392008c0.440923-19.312435 4.497416-36.861178 22.928005-44.974165 6.172925-2.821908 12.963142 5.467447 8.201172 10.229418-21.252497 21.164313-20.72339 43.651395-14.462281 67.461247a1.940062 1.940062 0 0 1-0.617292 1.940062 1.940062 1.940062 0 0 1-2.645539-0.264554z" fill="#e6e6e6" p-id="870"></path><path d="M1068.361811 588.103341a232.190148 232.190148 0 0 0-88.184637-86.597313 99.913193 99.913193 0 0 0 8.818464-17.196004l8.818463-1.234585a15.344127 15.344127 0 0 0 12.434034-12.434034l1.940062-11.464002a15.608681 15.608681 0 0 0-7.495694-15.96142l-7.936617-4.497416A101.588701 101.588701 0 0 0 906.543002 343.920083v-6.349294a17.636927 17.636927 0 0 0 8.818464-15.079573 17.636927 17.636927 0 1 0-27.513607 14.46228v6.613848A101.676886 101.676886 0 0 0 793.843037 435.014812l-8.112987 4.144678a15.520496 15.520496 0 0 0-8.112986 15.608681l1.587323 11.375818a15.079573 15.079573 0 0 0 11.904926 12.963142l8.818464 1.940062a101.94144 101.94144 0 0 0 24.338959 37.47847l-3.086462 1.763693c-37.302101 18.871512-88.184637 57.849122-117.109197 135.80434v1.32277a36.772993 36.772993 0 0 0 34.656562 48.942473 41.182225 41.182225 0 0 0 7.319325-0.705477 37.037547 37.037547 0 0 0 27.249053-23.721667 192.8598 192.8598 0 0 1 36.243885-61.729246l-8.818463 100.79504H746.223333a4.409232 4.409232 0 0 0-4.409232 4.409232v18.871512a4.409232 4.409232 0 0 0 4.409232 4.409232h13.139511v38.977609H746.223333a4.409232 4.409232 0 0 0-4.409232 4.409232v111.818119H453.626709a7.583879 7.583879 0 0 1 0-15.167758h167.550809a16.490527 16.490527 0 1 0 0-32.892869H317.645999a7.672063 7.672063 0 0 1 0-15.255942h229.280055a16.402342 16.402342 0 1 0 0-32.804685H336.782065a7.583879 7.583879 0 0 1-7.583878-7.583879v-2.733723h320.815708a4.409232 4.409232 0 0 0 4.409231-4.409232v-26.455391h8.818464a4.409232 4.409232 0 0 0 0-8.818464h-8.818464v-27.866345h8.818464a4.409232 4.409232 0 0 0 0-8.818464h-8.818464V268.522218a5.732001 5.732001 0 0 0 0-1.763692 5.026524 5.026524 0 0 0-0.970031-1.410955l-1.763692-0.793661a2.028247 2.028247 0 0 0 0-2.116432 2.116431 2.116431 0 0 0-2.028247-0.440923L573.381445 185.805029a4.232863 4.232863 0 0 0-1.940062-1.058215H415.530946C395.160295 107.144333 360.06281 42.064072 314.294983 1.1464a4.321047 4.321047 0 0 0-5.820186 0c-74.692387 66.932139-121.253875 198.062694-121.430244 342.15639a642.425078 642.425078 0 0 0 8.818463 103.26421 202.824664 202.824664 0 0 0-86.420944 165.258009 207.233896 207.233896 0 0 0 13.49225 74.251464 5.291078 5.291078 0 0 0 4.144678 2.910093 4.321047 4.321047 0 0 0 4.056493-2.821909 193.124354 193.124354 0 0 1 103.352394-106.967964c1.851877 4.232863 3.61557 8.818464 5.643817 12.522218a4.321047 4.321047 0 0 0 5.291078 2.292801c3.791939-1.234585 7.583879-2.292801 11.375818-3.262832v13.404065l-22.663452 61.729246a4.232863 4.232863 0 0 0 0.529108 4.056493 4.321047 4.321047 0 0 0 3.61557 1.851877h146.210128A4.321047 4.321047 0 0 0 388.193709 670.203238a4.232863 4.232863 0 0 0 0.529107-4.056493l-22.663451-61.729246V590.837065c3.791939 0.970031 7.583879 2.028247 11.375818 3.262832a3.61557 3.61557 0 0 0 1.410954 0 4.497416 4.497416 0 0 0 3.968309-2.557355c1.940062-3.968309 3.703755-8.289356 5.555632-12.434034a192.8598 192.8598 0 0 1 103.528763 107.056149 4.409232 4.409232 0 0 0 4.056493 2.821909 4.409232 4.409232 0 0 0 4.144678-2.910093 206.969342 206.969342 0 0 0 13.49225-74.251464 203.353772 203.353772 0 0 0-86.332759-165.258009 641.631416 641.631416 0 0 0 8.818463-103.26421 657.592835 657.592835 0 0 0-3.968308-70.547709h133.599724v448.330692H146.391435a4.409232 4.409232 0 0 0 0 8.818464h20.635205v27.866345h-20.635205a4.409232 4.409232 0 0 0 0 8.818464h20.635205v26.455391a4.409232 4.409232 0 0 0 4.409232 4.409232h148.943851v2.733723a16.402342 16.402342 0 0 0 16.402342 16.402343h209.614882a7.583879 7.583879 0 1 1 0 15.167757H317.645999a16.490527 16.490527 0 0 0 0 32.89287h303.531519a7.672063 7.672063 0 1 1 0 15.255942h-167.550809a16.402342 16.402342 0 0 0 0 32.804685H741.814101v8.818463a4.497416 4.497416 0 0 0 4.409232 4.409232h115.169135a4.497416 4.497416 0 0 0 4.409232-4.409232v-43.386841a43.034103 43.034103 0 0 0 10.758526-23.809852l16.755081-107.761626a11.111264 11.111264 0 0 1 10.405787-8.818463 10.84671 10.84671 0 0 1 10.84671 7.672063l21.252498 113.93455a43.386841 43.386841 0 0 0 42.681364 35.979332 44.092318 44.092318 0 0 0 7.495694-0.705477 43.386841 43.386841 0 0 0 35.273855-50.000689L995.69767 652.566311a271.696865 271.696865 0 0 0 58.290045-16.931451 32.275577 32.275577 0 0 0 17.636927-19.929727 34.127454 34.127454 0 0 0-3.262831-27.601792zM645.340109 273.372373v62.875646l-32.275577-32.7165L643.929155 273.372373zM643.929155 341.00999l-34.303824 34.303823-34.303824-34.303823 34.303824-34.303824zM582.199909 273.372373h55.115398l-27.601791 27.513607z m61.729246 142.859112l-34.303824 34.392008-34.303824-34.392008 34.303824-34.303824z m0 74.868756l-34.303824 34.303824-34.303824-34.303824 34.303824-34.303824z m0 74.868757L609.889885 599.655529l-34.303824-34.303824 34.303824-34.303823z m0 74.868756l-34.303824 34.303824-34.303824-34.303824 34.303824-34.303824z m1.1464 5.114709v64.551154l-32.011023-32.7165z m-32.011023-42.945918l32.275577-32.275577V634.929383z m0-74.868757l32.275577-32.275576v64.551153z m0-74.868756l32.275577-32.275577v64.551154z m0-74.868756l32.275577-32.275577v64.551154z m26.455391-114.640028h-61.729246l30.864623-30.4237z m-64.551154-64.551154l30.688253 30.688254-30.688253 30.688253z m0 73.369618h1.587323l30.688254 30.600069-32.275577 32.275577z m0 73.193248l32.275577 32.275577-32.275577 32.275577z m0 74.868757l32.275577 32.275576-32.275577 32.275577z m0 74.868756l32.275577 32.275577-32.275577 32.275577z m0 74.868756l32.275577 32.275577L574.527846 634.929383z m0 74.780572l32.275577 32.275577-32.275577 32.275577z m0 70.54771l35.273854-35.273855 35.273855 35.273855v4.76197h-70.547709z m0 13.580434h71.076817v27.866345h-71.51774z m-12.345849-535.986222l-32.275577 32.275577-32.275577-32.275577z m-74.868757 0l-32.275577 32.275577L423.467563 193.300723z m-176.369273-182.894936c35.273855 33.069239 64.462969 81.482604 84.480882 139.067172H226.904008C247.09829 91.888391 275.758297 43.475026 311.38489 10.405787zM127.167184 672.231485a194.623493 194.623493 0 0 1 69.842232-215.964175c0.793662 4.76197 1.940062 8.818464 2.821909 13.933172 0.617292 2.733724 1.1464 5.467447 1.763693 8.201171 1.587323 7.23114 3.262832 14.285911 5.114708 21.340683 0.881846 3.439201 1.763693 6.878402 2.733724 10.229417 1.587323 5.555632 3.262832 11.02308 5.026525 16.490527s2.998278 9.612125 4.673785 14.374096 2.46917 6.790217 3.79194 10.229418c2.380985 6.349294 4.76197 12.610403 7.319324 18.783328l0.529108 1.234585A201.325525 201.325525 0 0 0 127.167184 672.231485z m143.564589-8.818464h-4.497417l11.816741-53.880813H282.372145z m-5.114709-62.875646v-12.081295l5.90837-1.234585v13.31588z m18.430589 0h-8.112987v-14.197726l8.112987-1.32277z m15.255942 62.699277h-4.409232l3.880124-53.880813h4.497417z m-10.84671-62.699277v-16.049604c2.733724 0 5.467447-0.705477 8.201171-0.881846v16.93145z m20.723389 0h-8.112986v-17.107819h8.112986z m14.285911 62.699277l-3.880124-53.880813h4.409232l3.880124 53.880813z m-9.876679-62.699277v-17.636927h8.112987v17.636927z m20.72339 0H326.464463v-16.93145c2.733724 0 5.467447 0.617292 8.201171 0.881846z m17.636927 62.699277l-11.728557-53.880813h4.497417l11.816741 53.880813z m-13.227696-62.699277v-15.520496l8.112987 1.32277v14.197726z m18.43059 0h-5.908371v-13.31588l5.908371 1.234585z m25.220806-29.806407c-1.940062 4.585601-3.791939 8.818464-5.908371 13.756803a210.143989 210.143989 0 0 0-130.072339 0c-2.557354-5.291078-4.76197-10.758526-7.142956-16.225973s-5.643817-13.756803-8.289355-20.811574L227.521301 537.926283c-2.028247-5.820186-3.880124-11.640372-5.732002-17.636927s-2.910093-9.435756-4.232862-14.197727-2.380985-8.818464-3.527386-13.580434c-1.499139-6.08474-2.998278-12.16948-4.321047-18.430589-0.793662-3.61557-1.499139-7.319325-2.204616-10.934895a638.10403 638.10403 0 0 1-11.640372-120.01929 602.91836 602.91836 0 0 1 29.630038-189.420599H397.012172a602.91836 602.91836 0 0 1 29.630038 189.420599 635.899414 635.899414 0 0 1-10.229418 114.11092c-1.234585 6.525663-2.46917 12.963142-3.880124 19.40062-0.881846 3.880124-1.851877 7.760248-2.733723 11.640372-1.675508 6.878402-3.439201 13.756803-5.291079 20.458835-0.793662 2.821908-1.675508 5.555632-2.557354 8.818464-2.380985 7.936617-4.850155 15.696865-7.583879 23.368929l-1.587323 4.409232c-3.262832 8.37754-6.702032 17.019635-10.405787 25.397175z m122.400275 41.182225a199.297279 199.297279 0 0 1-8.818464 60.318292 201.942818 201.942818 0 0 0-103.969686-101.147778c3.351016-8.024802 6.525663-16.314158 9.612125-24.691699l1.32277-3.527385c2.380985-6.790217 4.585601-13.756803 6.790217-20.811574l2.910093-9.70031c1.587323-5.555632 3.086462-11.287633 4.497416-17.019635s2.380985-9.435756 3.439201-14.285911 2.204616-10.053049 3.174647-15.167758c0.617292-3.262832 1.410954-6.349294 1.940062-9.612125a194.535308 194.535308 0 0 1 79.101619 155.645883z m-86.685498-417.466069l34.303824 34.215639-23.280744 23.280744a582.018601 582.018601 0 0 0-11.02308-57.496383zM430.875073 264.55391c0-2.292801-0.705477-4.497416-0.970031-6.702033l25.573544-25.573544L487.754163 264.55391z m27.689976-35.273855l34.303823-35.273855 34.303824 34.303824-34.303824 34.303824z m39.506717 35.273855l32.275577-32.275577L562.62292 264.55391z m35.273854-35.273855l32.275577-32.275577v64.551154z m-38.536686 500.624182h70.547709v27.866345h-70.547709z m-79.366173 0h70.54771v27.866345h-70.54771z m-79.366173 0h70.54771v27.866345H335.282927zM247.09829 757.770582h-70.547709v-27.866345h70.547709z m79.366173 0h-70.547709v-27.866345h70.547709z m564.822597-392.333448l0.617293-26.455391a16.843266 16.843266 0 0 0 5.996555 1.058216 14.285911 14.285911 0 0 0 4.321047-0.705477l-0.617292 26.455391a2.46917 2.46917 0 0 1-1.499139 2.469169 8.024802 8.024802 0 0 1-7.319325-0.440923 2.46917 2.46917 0 0 1-1.499139-2.204616z m-89.419221 81.129866A93.122976 93.122976 0 0 1 887.230567 352.738546v12.874957a6.878402 6.878402 0 0 0 3.527385 6.08474 12.698588 12.698588 0 0 0 6.525664 1.763693 11.464003 11.464003 0 0 0 5.291078-1.234585 6.966586 6.966586 0 0 0 3.791939-6.261109v-12.874957a93.211161 93.211161 0 1 1-104.498794 93.475715zM750.632565 739.957286v-10.053049h106.350672v10.053049z m93.211161 8.818463v38.97761h-7.583879v-38.97761z m-11.993111 0v38.97761h-27.866345l3.262832-38.97761z m-33.510162 0l-3.262831 38.97761H776.20611v-38.97761z m-26.984498 0v38.97761h-7.583879v-38.97761z m85.627282 167.55081H750.632565V796.571822h106.350672z m206.087495-303.972443a23.545298 23.545298 0 0 1-12.786772 14.550465 305.383396 305.383396 0 0 1-76.720634 19.753359 24.427144 24.427144 0 0 0 2.380985-6.349294 57.143645 57.143645 0 0 0-2.380985-32.011023l0.529108-0.529108a13.756803 13.756803 0 0 0 2.028247-5.643816v-8.994833-0.705477-1.234585c0-0.440923 0 0 0 0a204.235618 204.235618 0 0 0 22.046159-3.968309 4.409232 4.409232 0 0 0-2.204616-8.818464 121.606614 121.606614 0 0 1-12.257665 2.380986c-2.733724-3.703755-5.732001-7.848433-8.818463-11.904926a4.409232 4.409232 0 1 0-6.790217 5.555632c2.116431 2.645539 4.144678 5.291078 5.996555 7.848432h-3.086462l-1.675508-0.264554a28.219084 28.219084 0 0 0-4.321048-2.821908 26.455391 26.455391 0 0 0-3.61557-1.587323 19.312435 19.312435 0 0 0-21.164312 2.469169 8.818464 8.818464 0 0 0-1.499139 2.910093 12.16948 12.16948 0 0 0 0 1.763693 2.645539 2.645539 0 0 0 0 0.881847v0.529107h-3.880124a36.772993 36.772993 0 0 0 0.793661 73.457803h2.028247a404.502928 404.502928 0 0 0 50.000689-5.467448l25.661729 192.154323a34.568378 34.568378 0 0 1-53.968997 34.215639 34.127454 34.127454 0 0 1-14.197727-22.398897l-21.252497-114.640028a19.841543 19.841543 0 0 0-38.536686 1.410954l-17.548743 108.290734a37.213917 37.213917 0 0 1-2.028247 8.201171v-69.22494a4.409232 4.409232 0 0 0-4.409232-4.409231h-13.13951v-38.97761h13.13951a4.409232 4.409232 0 0 0 4.409232-4.409232v-18.871512a4.409232 4.409232 0 0 0-4.409232-4.409232h-51.852566l8.818464-110.671719c2.292801-2.116431 4.497416-4.232863 6.878401-6.172924a4.409232 4.409232 0 1 0-5.643816-6.790217c-2.821908 2.380985-5.555632 4.850155-8.289356 7.495694a195.769893 195.769893 0 0 0-46.737857 74.075095 27.778161 27.778161 0 0 1-35.273855 17.019635 27.866345 27.866345 0 0 1-17.10782-35.273855l0.440924-1.058216c28.307268-76.191526 76.632449-113.758181 112.523596-131.924216l5.996555-2.910093a100.971409 100.971409 0 0 0 63.933862 22.575267h1.410954a101.853255 101.853255 0 0 0 78.572511-38.713056 221.96073 221.96073 0 0 1 85.627282 83.86359 24.956252 24.956252 0 0 1 2.380985 20.194282z m-114.022735-3.791939a35.273855 35.273855 0 0 0 7.23114 2.645539c3.262832 10.141233 4.056493 29.10093-3.351016 37.831209l-16.314158 1.058216h-0.970031a27.689976 27.689976 0 0 1-24.691698-13.404065 28.042714 28.042714 0 0 1 23.457114-42.41681h3.61557a18.07785 18.07785 0 0 0 11.023079 14.726834z m2.028247-13.404065a16.314158 16.314158 0 0 1-8.818464-9.347571v-1.1464a4.409232 4.409232 0 0 1 0.970031-2.64554 4.144678 4.144678 0 0 1 1.32277-1.1464l1.499139-0.705477H951.076244a19.665174 19.665174 0 0 1 5.379263 0.705477 27.249053 27.249053 0 0 1 5.90837 2.292801 23.368929 23.368929 0 0 1 3.439201 2.2928h0.440923a13.668619 13.668619 0 0 1 2.292801 2.204616 11.816741 11.816741 0 0 1 1.499139 2.380985 12.16948 12.16948 0 0 1 0.529108 2.292801 4.585601 4.585601 0 0 1-0.881847 2.910093 17.636927 17.636927 0 0 1-18.606958 0.352738z m11.375818 24.515329a45.679642 45.679642 0 0 0-0.881846-5.379263l8.818463-0.881846a42.41681 42.41681 0 0 1 1.234585 5.291078z m9.788495 1.146401c0 1.763693 0 3.61557 0.529107 5.379262l-9.70031 0.970031v-5.379262z m-11.111265-8.818464c0-1.499139-0.793662-2.733724-1.234584-3.968309s0-0.529108 0-0.705477l8.818463-0.617292a24.515329 24.515329 0 0 1 1.851878 4.321047z m-0.529107 32.275577L970.21231 643.747847a15.608681 15.608681 0 0 1-2.46917 3.791939q-4.497416 0.705477-8.818463 1.058216a27.337237 27.337237 0 0 0 1.675508-3.703755z m0.705477-2.292801a42.152256 42.152256 0 0 0 1.058215-5.026524l9.964864-1.1464c0 1.1464 0 2.204616-0.617292 3.262831s0 1.32277-0.617293 2.028247z m1.499139-7.319325v-5.467447l9.70031-1.058216a51.323458 51.323458 0 0 1 0 5.291079z" fill="#e6e6e6" p-id="871"></path><path d="M743.930533 682.99001c-3.351016 0.617292-5.643817 2.733724-5.291079 4.673786s3.439201 2.998278 6.702033 2.292801 5.732001-2.821908 5.291078-4.761971-3.351016-2.910093-6.702032-2.204616z" fill="#e6e6e6" p-id="872"></path><path d="M844.258765 572.954108m6.43451-0.195468l15.777771-0.479298q6.43451-0.195468 6.629979 6.239042l0.479298 15.777771q0.195468 6.43451-6.239042 6.629978l-15.777772 0.479299q-6.43451 0.195468-6.629978-6.239043l-0.479298-15.777771q-0.195468-6.43451 6.239042-6.629978Z" fill="#e6e6e6" p-id="873"></path><path d="M951.252613 583.429556a1.1464 1.1464 0 0 0 0 1.587323l4.144678 4.409232a1.587323 1.587323 0 0 0 0.793662 0l9.788494 0.705477a0.970031 0.970031 0 0 0 1.058216-0.970031 0.970031 0.970031 0 0 0-0.970031-1.1464l-9.435756-0.793662-3.880124-4.056493a1.1464 1.1464 0 0 0-1.499139 0.264554zM311.38489 194.0062a61.729246 61.729246 0 1 0 61.729246 61.729246 61.729246 61.729246 0 0 0-61.729246-61.729246z m0 105.204272a44.092318 44.092318 0 1 1 44.092318-44.092318 44.092318 44.092318 0 0 1-44.092318 44.70961z" fill="#e6e6e6" p-id="874"></path></svg>