<?xml version="1.0" standalone="no"?><!DOCTYPE svg PUBLIC "-//W3C//DTD SVG 1.1//EN" "http://www.w3.org/Graphics/SVG/1.1/DTD/svg11.dtd"><svg t="1688711655053" class="icon" viewBox="0 0 1024 1024" version="1.1" xmlns="http://www.w3.org/2000/svg" p-id="9472" xmlns:xlink="http://www.w3.org/1999/xlink" width="16" height="16"><path d="M186.274909 1000.727273a93.090909 93.090909 0 0 1-93.090909-93.090909v-698.181819a93.090909 93.090909 0 0 1 93.090909-93.090909h93.090909a93.416727 93.416727 0 0 1 93.090909-93.090909h279.272728a93.602909 93.602909 0 0 1 93.090909 93.090909h93.090909a93.090909 93.090909 0 0 1 93.090909 93.090909v698.181819a93.090909 93.090909 0 0 1-93.090909 93.090909z m0-744.727273v605.090909a45.986909 45.986909 0 0 0 46.545455 46.545455h558.545454a46.545455 46.545455 0 0 0 46.545455-46.545455v-605.090909a46.545455 46.545455 0 0 0-46.545455-46.545455h-46.545454a93.463273 93.463273 0 0 1-93.090909 93.09091h-279.272728a93.090909 93.090909 0 0 1-93.090909-93.09091h-46.545454a46.545455 46.545455 0 0 0-46.545455 46.545455z m186.181818-93.090909a46.545455 46.545455 0 0 0 46.545455 46.545454h186.181818a46.592 46.592 0 0 0 4.654545-93.090909H413.835636a46.545455 46.545455 0 0 0-41.658181 46.545455z m85.178182 576.837818l-131.444364-131.723636 65.722182-65.722182 98.629818 98.629818 197.445819-197.538909 66.001454 66.001455-263.447273 263.26109z" fill="#0062C8" p-id="9473"></path></svg>