<?xml version="1.0" standalone="no"?><!DOCTYPE svg PUBLIC "-//W3C//DTD SVG 1.1//EN" "http://www.w3.org/Graphics/SVG/1.1/DTD/svg11.dtd"><svg t="1686406753552" class="icon" viewBox="0 0 1024 1024" version="1.1" xmlns="http://www.w3.org/2000/svg" p-id="3271" xmlns:xlink="http://www.w3.org/1999/xlink" width="16" height="16"><path d="M896 64a64 64 0 0 1 64 64v768a64 64 0 0 1-64 64H128a64 64 0 0 1-64-64V128a64 64 0 0 1 64-64h768m0-64H128A128 128 0 0 0 0 128v768a128 128 0 0 0 128 128h768a128 128 0 0 0 128-128V128A128 128 0 0 0 896 0z" p-id="3272" fill="#6AAB73"></path><path d="M293.44 721.76L153.6 512l139.84-209.76 53.12 35.52L230.4 512l116.16 174.24-53.12 35.52z m437.12 0l-53.12-35.52L793.6 512 677.44 337.76l53.12-35.52L870.4 512 730.56 721.76z m-313.52 38.496l127.92-511.952 62.096 15.52-127.92 511.936z" p-id="3273" fill="#6AAB73"></path></svg>