<svg t="1686412052961" class="icon" viewBox="0 0 1024 1024" version="1.1" xmlns="http://www.w3.org/2000/svg" p-id="1728" width="16" height="16"><path d="M838.892308 350.523077c47.261538 0 141.784615-39.384615 141.784615-165.415385s-90.584615-133.907692-120.123077-133.907692c-55.138462 0-110.276923 39.384615-159.507692 124.061538-49.230769 86.646154-104.369231 179.2-104.369231 179.2h-1.969231c-11.815385-61.046154-21.661538-110.276923-25.6-131.938461-9.846154-53.169231-70.892308-165.415385-194.953846-165.415385-126.030769 0-240.246154 72.861538-240.246154 72.861539-19.692308 13.784615-33.476923 37.415385-33.476923 64.984615 0 41.353846 33.476923 76.8 76.8 76.8 11.815385 0 23.630769-3.938462 33.476923-7.876923 0 0 94.523077-53.169231 116.184616 0 5.907692 15.753846 11.815385 33.476923 17.723077 53.169231 23.630769 82.707692 47.261538 179.2 64.984615 265.846154l-82.707692 118.153846s-92.553846-33.476923-139.815385-33.476923-141.784615 39.384615-141.784615 165.415384 90.584615 133.907692 120.123077 133.907693c55.138462 0 110.276923-39.384615 159.507692-124.061539 49.230769-86.646154 104.369231-179.2 104.369231-179.2 15.753846 78.769231 29.538462 139.815385 37.415384 167.384616 31.507692 88.615385 104.369231 141.784615 198.892308 141.784615 0 0 98.461538 0 214.646154-64.984615 27.569231-11.815385 47.261538-39.384615 47.261538-70.892308 0-41.353846-33.476923-76.8-76.8-76.8-11.815385 0-23.630769 3.938462-33.476923 7.876923 0 0-82.707692 47.261538-110.276923 9.846154-19.692308-39.384615-37.415385-90.584615-51.2-153.6-11.815385-55.138462-25.6-122.092308-39.384615-187.076923l84.676923-122.092308c-1.969231 1.969231 90.584615 35.446154 137.846154 35.446154z" fill="#d81e06" p-id="1729"></path></svg>